<?xml version="1.0" encoding="UTF-8"?>
<!--Generator: Apple Native CoreSVG 175.5-->
<!DOCTYPE svg
PUBLIC "-//W3C//DTD SVG 1.1//EN"
       "http://www.w3.org/Graphics/SVG/1.1/DTD/svg11.dtd">
<svg version="1.1" xmlns="http://www.w3.org/2000/svg" xmlns:xlink="http://www.w3.org/1999/xlink" width="11.9717" height="2.54541">
 <g>
  <rect height="2.54541" opacity="0" width="11.9717" x="0" y="0"/>
  <path d="M1.26953 2.54541C1.98682 2.54541 2.55811 1.98047 2.55811 1.27588C2.55811 0.571289 1.98682 0.00634766 1.26953 0.00634766C0.571289 0.00634766 0 0.571289 0 1.27588C0 1.98047 0.571289 2.54541 1.26953 2.54541ZM5.98584 2.54541C6.69043 2.54541 7.25537 1.98047 7.25537 1.27588C7.25537 0.571289 6.69043 0.00634766 5.98584 0.00634766C5.2876 0.00634766 4.72266 0.571289 4.72266 1.27588C4.72266 1.98047 5.2876 2.54541 5.98584 2.54541ZM10.7021 2.54541C11.4067 2.54541 11.9717 1.98047 11.9717 1.27588C11.9717 0.571289 11.4067 0.00634766 10.7021 0.00634766C9.98486 0.00634766 9.41992 0.571289 9.41992 1.27588C9.41992 1.98047 9.98486 2.54541 10.7021 2.54541Z" fill="#ffffff"/>
 </g>
</svg>
